<svg width="159" height="200" viewBox="0 0 159 200" fill="none" xmlns="http://www.w3.org/2000/svg">
<g filter="url(#filter0_i_105_227)">
<path d="M79.1719 155.147C120.921 155.147 154.742 121.174 154.742 79.2941C154.742 37.4146 120.921 3.44116 79.1719 3.44116C37.4226 3.44116 3.60156 37.4146 3.60156 79.2941C3.60156 121.174 37.4226 155.147 79.1719 155.147Z" fill="#65768C" stroke="#AECCF2" stroke-width="7"/>
<line x1="81.5" y1="7.5" x2="81.5" y2="14.0294" stroke="#AECCF2" stroke-width="7" stroke-linecap="round"/>
<line x1="81.5" y1="143.971" x2="81.5" y2="150.5" stroke="#AECCF2" stroke-width="7" stroke-linecap="round"/>
<line x1="143.023" y1="77.5588" x2="149.5" y2="77.5588" stroke="#AECCF2" stroke-width="7" stroke-linecap="round"/>
<line x1="82.121" y1="76.3148" x2="95.9164" y2="60.2241" stroke="#AECCF2" stroke-width="7" stroke-linecap="round"/>
<line x1="78.156" y1="81.664" x2="45.414" y2="107.344" stroke="#AECCF2" stroke-width="7" stroke-linecap="round"/>
<line x1="6.5" y1="77.5588" x2="12.9766" y2="77.5588" stroke="#AECCF2" stroke-width="7" stroke-linecap="round"/>
<mask id="path-8-inside-1_105_227" fill="white">
<ellipse cx="79.7578" cy="79.2941" rx="4.6875" ry="4.70588"/>
</mask>
<ellipse cx="79.7578" cy="79.2941" rx="4.6875" ry="4.70588" fill="#65768C"/>
<path d="M77.4453 79.2941C77.4453 78.053 78.4548 77 79.7578 77V91C86.2384 91 91.4453 85.7333 91.4453 79.2941H77.4453ZM79.7578 77C81.0608 77 82.0703 78.053 82.0703 79.2941H68.0703C68.0703 85.7333 73.2772 91 79.7578 91V77ZM82.0703 79.2941C82.0703 80.5353 81.0608 81.5883 79.7578 81.5883V67.5883C73.2772 67.5883 68.0703 72.855 68.0703 79.2941H82.0703ZM79.7578 81.5883C78.4548 81.5883 77.4453 80.5353 77.4453 79.2941H91.4453C91.4453 72.855 86.2384 67.5883 79.7578 67.5883V81.5883Z" fill="#AECCF2" mask="url(#path-8-inside-1_105_227)"/>
</g>
<path d="M21.0582 197.35C19.2249 197.35 17.9582 196.983 17.2582 196.25C16.5582 195.55 16.1915 194.633 16.1582 193.5C16.1582 192.533 16.3415 191.383 16.7082 190.05C17.1082 188.683 17.5082 187.383 17.9082 186.15C18.7082 183.783 19.5415 181.45 20.4082 179.15C21.2749 176.85 22.1415 174.633 23.0082 172.5C23.9082 170.367 24.7582 168.333 25.5582 166.4C26.3915 164.467 27.1582 162.683 27.8582 161.05C25.5915 161.083 23.6249 161.15 21.9582 161.25C20.3249 161.35 18.8249 161.483 17.4582 161.65C16.0915 161.783 14.6749 161.983 13.2082 162.25C13.3749 160.85 14.0249 159.783 15.1582 159.05C16.3249 158.283 17.8749 157.75 19.8082 157.45C21.7415 157.15 23.9582 157 26.4582 157C27.7582 157 28.9749 157.033 30.1082 157.1C31.2749 157.133 32.3749 157.2 33.4082 157.3C34.4749 157.4 35.5082 157.5 36.5082 157.6C38.6082 157.8 40.2749 157.933 41.5082 158C42.7749 158.067 43.6749 158.1 44.2082 158.1C43.2082 159.033 41.9415 159.717 40.4082 160.15C38.9082 160.55 37.3249 160.8 35.6582 160.9C33.9915 161 32.4082 161.05 30.9082 161.05C29.3082 164.983 27.8415 169.067 26.5082 173.3C25.1749 177.533 23.9415 181.717 22.8082 185.85C22.3749 187.45 22.0082 188.817 21.7082 189.95C21.4415 191.05 21.2415 192.067 21.1082 193C20.9749 193.9 20.9082 194.867 20.9082 195.9C20.9082 196.067 20.9082 196.25 20.9082 196.45C20.9415 196.683 20.9915 196.983 21.0582 197.35ZM34.9902 194.5C33.5236 194.5 32.4236 194.067 31.6902 193.2C30.9569 192.333 30.5902 191.283 30.5902 190.05C30.5902 189.283 30.7236 188.317 30.9902 187.15C31.2569 185.983 31.6236 184.767 32.0902 183.5C32.5902 182.2 33.1569 180.983 33.7902 179.85C34.4236 178.717 35.1069 177.8 35.8402 177.1C36.5736 176.367 37.3069 176 38.0402 176C38.4402 176 38.7902 176.133 39.0902 176.4C39.3902 176.633 39.5402 176.983 39.5402 177.45C39.5402 177.883 39.2736 178.533 38.7402 179.4C38.2402 180.267 37.6402 181.267 36.9402 182.4C36.2736 183.533 35.6736 184.717 35.1402 185.95C34.6402 187.15 34.3902 188.3 34.3902 189.4C34.3902 190.467 34.5736 191.183 34.9402 191.55C35.3402 191.883 35.9069 192.05 36.6402 192.05C37.7736 192.05 39.0069 191.483 40.3402 190.35C41.6736 189.217 43.0569 187.233 44.4902 184.4L45.2402 185.2C44.0736 188.133 42.5902 190.417 40.7902 192.05C38.9902 193.683 37.0569 194.5 34.9902 194.5ZM40.8902 171.95C40.2569 171.95 39.6736 171.8 39.1402 171.5C38.6402 171.167 38.3902 170.667 38.3902 170C38.3902 169.2 38.8236 168.517 39.6902 167.95C40.5569 167.383 41.4569 167.1 42.3902 167.1C42.9902 167.1 43.4902 167.233 43.8902 167.5C44.3236 167.767 44.5402 168.25 44.5402 168.95C44.5402 169.65 44.1569 170.333 43.3902 171C42.6236 171.633 41.7902 171.95 40.8902 171.95ZM69.3473 194.55C68.0473 194.55 67.0806 194.167 66.4473 193.4C65.8139 192.633 65.4973 191.717 65.4973 190.65C65.4973 189.883 65.6139 189.117 65.8473 188.35C66.0806 187.583 66.3139 186.833 66.5473 186.1C66.7806 185.333 66.8973 184.65 66.8973 184.05C66.8973 183.483 66.7806 183.1 66.5473 182.9C66.3473 182.667 66.0806 182.55 65.7473 182.55C64.9806 182.55 64.0806 183.133 63.0473 184.3C62.0473 185.467 60.7973 187.167 59.2973 189.4C58.7639 190.2 58.2639 191.05 57.7973 191.95C57.3306 192.817 56.9139 193.55 56.5473 194.15C56.2473 194.15 55.8473 194.1 55.3473 194C54.8806 193.9 54.4639 193.75 54.0973 193.55C53.7306 193.383 53.5473 193.15 53.5473 192.85C53.5473 192.55 53.7139 191.967 54.0473 191.1C54.3806 190.233 54.7639 189.233 55.1973 188.1C55.6306 186.933 56.0139 185.8 56.3473 184.7C56.6806 183.567 56.8473 182.617 56.8473 181.85C56.8473 181.383 56.7639 181.017 56.5973 180.75C56.4306 180.483 56.1639 180.35 55.7973 180.35C55.0973 180.35 54.2473 180.767 53.2473 181.6C52.2806 182.433 51.2473 183.533 50.1473 184.9C49.0806 186.233 48.0639 187.733 47.0973 189.4C46.1639 191.033 45.3973 192.683 44.7973 194.35C44.4306 194.35 43.9806 194.267 43.4473 194.1C42.9139 193.967 42.4473 193.783 42.0473 193.55C41.6473 193.35 41.4473 193.167 41.4473 193C41.4473 192.967 41.5639 192.5 41.7973 191.6C42.0306 190.667 42.3139 189.517 42.6473 188.15C42.9806 186.783 43.3306 185.383 43.6973 183.95C44.0639 182.517 44.3806 181.267 44.6473 180.2C44.7473 179.833 45.1139 179.517 45.7473 179.25C46.3806 178.95 46.9306 178.8 47.3973 178.8C47.8639 178.8 48.2639 178.95 48.5973 179.25C48.9306 179.55 49.0973 179.95 49.0973 180.45C49.0973 180.783 49.0306 181.267 48.8973 181.9C48.7639 182.533 48.5973 183.25 48.3973 184.05C49.0973 183.117 49.8306 182.2 50.5973 181.3C51.3973 180.367 52.2139 179.533 53.0473 178.8C53.9139 178.067 54.7639 177.483 55.5973 177.05C56.4639 176.617 57.3139 176.4 58.1473 176.4C59.3806 176.4 60.2139 176.85 60.6473 177.75C61.0806 178.617 61.2973 179.567 61.2973 180.6C61.2973 181.033 61.2639 181.467 61.1973 181.9C61.1306 182.3 61.0306 182.717 60.8973 183.15C60.7973 183.55 60.6473 184.033 60.4473 184.6C61.0806 183.667 61.7639 182.817 62.4973 182.05C63.2639 181.25 64.0806 180.617 64.9473 180.15C65.8139 179.683 66.7306 179.45 67.6973 179.45C68.9973 179.45 69.8973 179.85 70.3973 180.65C70.8973 181.417 71.1473 182.267 71.1473 183.2C71.1473 184.067 70.9973 184.983 70.6973 185.95C70.4306 186.883 70.1473 187.783 69.8473 188.65C69.5806 189.483 69.4473 190.2 69.4473 190.8C69.4473 191.133 69.5306 191.45 69.6973 191.75C69.8639 192.017 70.1973 192.15 70.6973 192.15C71.5973 192.15 72.4639 191.733 73.2973 190.9C74.1306 190.067 74.8973 189.05 75.5973 187.85C76.3306 186.617 76.9473 185.45 77.4473 184.35L78.2973 185.4C77.7639 186.767 77.0639 188.167 76.1973 189.6C75.3639 191 74.3806 192.167 73.2473 193.1C72.1139 194.067 70.8139 194.55 69.3473 194.55ZM82.0051 195.2C79.8717 195.2 78.2217 194.617 77.0551 193.45C75.9217 192.317 75.3551 190.883 75.3551 189.15C75.3551 187.683 75.7217 186.133 76.4551 184.5C77.2217 182.833 78.2384 181.283 79.5051 179.85C80.7717 178.383 82.1717 177.2 83.7051 176.3C85.2384 175.4 86.7717 174.95 88.3051 174.95C89.1717 174.95 89.9884 175.183 90.7551 175.65C91.5551 176.083 91.9551 176.967 91.9551 178.3C91.9551 179.567 91.5884 180.75 90.8551 181.85C90.1217 182.95 89.1384 183.933 87.9051 184.8C86.6717 185.667 85.3051 186.383 83.8051 186.95C82.3384 187.483 80.8551 187.833 79.3551 188C79.3217 188.133 79.2884 188.283 79.2551 188.45C79.2551 188.583 79.2551 188.817 79.2551 189.15C79.2551 189.317 79.2717 189.617 79.3051 190.05C79.3717 190.45 79.5217 190.883 79.7551 191.35C79.9884 191.817 80.3717 192.217 80.9051 192.55C81.4384 192.883 82.1717 193.05 83.1051 193.05C84.5051 193.05 85.9051 192.667 87.3051 191.9C88.7384 191.1 90.0717 190.05 91.3051 188.75C92.5717 187.45 93.6217 186 94.4551 184.4L95.4551 185.2C94.5551 187.2 93.3884 188.95 91.9551 190.45C90.5551 191.95 88.9884 193.117 87.2551 193.95C85.5551 194.783 83.8051 195.2 82.0051 195.2ZM79.9051 186.15C80.7717 186.05 81.7384 185.75 82.8051 185.25C83.8717 184.75 84.8884 184.117 85.8551 183.35C86.8551 182.583 87.6717 181.75 88.3051 180.85C88.9384 179.917 89.2551 178.983 89.2551 178.05C89.2551 177.683 89.1884 177.433 89.0551 177.3C88.9217 177.167 88.7051 177.1 88.4051 177.1C87.6384 177.1 86.8384 177.383 86.0051 177.95C85.1717 178.483 84.3551 179.2 83.5551 180.1C82.7551 180.967 82.0384 181.933 81.4051 183C80.7717 184.067 80.2717 185.117 79.9051 186.15ZM110.234 194.5C108.768 194.5 107.668 194.067 106.934 193.2C106.201 192.333 105.834 191.283 105.834 190.05C105.834 189.283 105.968 188.317 106.234 187.15C106.501 185.983 106.868 184.767 107.334 183.5C107.834 182.2 108.401 180.983 109.034 179.85C109.668 178.717 110.351 177.8 111.084 177.1C111.818 176.367 112.551 176 113.284 176C113.684 176 114.034 176.133 114.334 176.4C114.634 176.633 114.784 176.983 114.784 177.45C114.784 177.883 114.518 178.533 113.984 179.4C113.484 180.267 112.884 181.267 112.184 182.4C111.518 183.533 110.918 184.717 110.384 185.95C109.884 187.15 109.634 188.3 109.634 189.4C109.634 190.467 109.818 191.183 110.184 191.55C110.584 191.883 111.151 192.05 111.884 192.05C113.018 192.05 114.251 191.483 115.584 190.35C116.918 189.217 118.301 187.233 119.734 184.4L120.484 185.2C119.318 188.133 117.834 190.417 116.034 192.05C114.234 193.683 112.301 194.5 110.234 194.5ZM116.134 171.95C115.501 171.95 114.918 171.8 114.384 171.5C113.884 171.167 113.634 170.667 113.634 170C113.634 169.2 114.068 168.517 114.934 167.95C115.801 167.383 116.701 167.1 117.634 167.1C118.234 167.1 118.734 167.233 119.134 167.5C119.568 167.767 119.784 168.25 119.784 168.95C119.784 169.65 119.401 170.333 118.634 171C117.868 171.633 117.034 171.95 116.134 171.95ZM122.991 195.3C121.525 195.3 120.341 194.867 119.441 194C118.541 193.133 118.091 191.817 118.091 190.05C118.091 188.683 118.341 186.983 118.841 184.95C119.375 182.917 120.041 180.817 120.841 178.65C120.608 178.583 120.325 178.533 119.991 178.5C119.691 178.433 119.391 178.333 119.091 178.2V176.65C119.625 176.717 120.058 176.767 120.391 176.8C120.758 176.833 121.125 176.867 121.491 176.9C122.191 175.133 122.941 173.433 123.741 171.8C124.575 170.133 125.391 168.65 126.191 167.35C127.025 166.05 127.808 165.033 128.541 164.3C129.275 163.533 129.925 163.15 130.491 163.15C130.825 163.15 131.141 163.283 131.441 163.55C131.741 163.783 131.891 164.133 131.891 164.6C131.891 165.267 131.541 166.217 130.841 167.45C130.175 168.683 129.341 170.133 128.341 171.8C127.341 173.433 126.375 175.183 125.441 177.05C125.708 177.05 125.975 177.05 126.241 177.05C126.508 177.05 126.758 177.05 126.991 177.05C128.458 177.05 129.775 177.033 130.941 177C132.141 176.933 133.358 176.833 134.591 176.7V178.35C132.758 178.517 131.075 178.65 129.541 178.75C128.008 178.85 126.541 178.917 125.141 178.95C125.041 178.95 124.941 178.95 124.841 178.95C124.741 178.95 124.641 178.95 124.541 178.95C123.841 180.583 123.225 182.267 122.691 184C122.191 185.7 121.941 187.367 121.941 189C121.941 190.367 122.158 191.333 122.591 191.9C123.025 192.467 123.708 192.75 124.641 192.75C126.308 192.75 128.008 192 129.741 190.5C131.508 188.967 133.041 186.9 134.341 184.3L135.041 184.8C134.175 186.767 133.091 188.55 131.791 190.15C130.525 191.75 129.141 193 127.641 193.9C126.141 194.833 124.591 195.3 122.991 195.3ZM138.596 178.15C139.329 176.25 140.096 174.3 140.896 172.3C141.696 170.3 142.496 168.4 143.296 166.6C144.096 164.767 144.879 163.133 145.646 161.7C146.412 160.233 147.146 159.083 147.846 158.25C148.579 157.417 149.262 157 149.896 157C150.262 157 150.579 157.15 150.846 157.45C151.146 157.717 151.296 158.067 151.296 158.5C151.296 158.967 151.012 159.883 150.446 161.25C149.912 162.617 149.196 164.25 148.296 166.15C147.396 168.05 146.396 170.067 145.296 172.2C144.196 174.333 143.096 176.433 141.996 178.5C140.896 180.533 139.862 182.367 138.896 184C137.929 185.633 137.129 186.9 136.496 187.8C136.396 187.767 136.296 187.733 136.196 187.7C136.096 187.667 135.996 187.633 135.896 187.6C135.929 186.733 136.079 185.75 136.346 184.65C136.646 183.55 136.996 182.433 137.396 181.3C137.829 180.133 138.229 179.083 138.596 178.15ZM134.846 193.5C134.312 193.5 133.846 193.367 133.446 193.1C133.046 192.833 132.846 192.4 132.846 191.8C132.846 191.167 133.179 190.617 133.846 190.15C134.546 189.683 135.296 189.45 136.096 189.45C136.596 189.45 136.996 189.567 137.296 189.8C137.629 190.033 137.796 190.433 137.796 191C137.796 191.567 137.496 192.133 136.896 192.7C136.296 193.233 135.612 193.5 134.846 193.5Z" fill="#D94E5A"/>
<defs>
<filter id="filter0_i_105_227" x="-2.89844" y="-4.05884" width="161.141" height="162.706" filterUnits="userSpaceOnUse" color-interpolation-filters="sRGB">
<feFlood flood-opacity="0" result="BackgroundImageFix"/>
<feBlend mode="normal" in="SourceGraphic" in2="BackgroundImageFix" result="shape"/>
<feColorMatrix in="SourceAlpha" type="matrix" values="0 0 0 0 0 0 0 0 0 0 0 0 0 0 0 0 0 0 127 0" result="hardAlpha"/>
<feOffset dx="-3" dy="-4"/>
<feGaussianBlur stdDeviation="2.5"/>
<feComposite in2="hardAlpha" operator="arithmetic" k2="-1" k3="1"/>
<feColorMatrix type="matrix" values="0 0 0 0 0.67451 0 0 0 0 0.266667 0 0 0 0 0.301961 0 0 0 1 0"/>
<feBlend mode="normal" in2="shape" result="effect1_innerShadow_105_227"/>
</filter>
</defs>
</svg>
