<svg width="200" height="200" viewBox="0 0 200 200" fill="none" xmlns="http://www.w3.org/2000/svg">
<rect width="200" height="200" fill="#7EF574"/>
<path d="M52.687 86.264C51.247 85.496 50.335 84.704 49.951 83.888C49.567 83.072 49.375 82.376 49.375 81.8C49.375 80.504 49.831 78.776 50.743 76.616C51.703 74.408 52.975 71.888 54.559 69.056C56.143 66.224 57.943 63.272 59.959 60.2C58.471 60.104 57.055 60.032 55.711 59.984C54.367 59.936 52.639 59.912 50.527 59.912H49.375C50.047 58.184 51.103 56.984 52.543 56.312C54.031 55.592 55.759 55.232 57.727 55.232C58.543 55.232 59.383 55.28 60.247 55.376C61.159 55.472 62.095 55.568 63.055 55.664C65.455 52.208 67.807 48.944 70.111 45.872C72.463 42.8 74.671 40.04 76.735 37.592C78.847 35.096 80.719 33.056 82.351 31.472C84.655 29.168 86.335 28.016 87.391 28.016C88.063 28.016 88.807 28.28 89.623 28.808C90.487 29.336 91.375 30.008 92.287 30.824C91.807 31.208 91.183 32.192 90.415 33.776C89.695 35.36 88.903 37.376 88.039 39.824C87.223 42.224 86.383 44.864 85.519 47.744C84.703 50.624 83.959 53.552 83.287 56.528C82.615 59.504 82.063 62.36 81.631 65.096C81.247 67.784 81.055 70.16 81.055 72.224C81.055 74.144 81.247 75.584 81.631 76.544C82.015 77.456 82.663 77.912 83.575 77.912C84.679 77.912 86.047 77.072 87.679 75.392C89.311 73.712 91.135 70.976 93.151 67.184L94.447 68.552C92.959 72.488 91.015 75.728 88.615 78.272C86.263 80.816 83.743 82.088 81.055 82.088C78.751 82.088 77.119 81.104 76.159 79.136C75.199 77.12 74.719 74.384 74.719 70.928C74.719 69.824 74.791 68.576 74.935 67.184C75.079 65.792 75.319 64.064 75.655 62C73.543 61.664 71.671 61.4 70.039 61.208C68.407 61.016 66.847 60.824 65.359 60.632C63.055 64.712 60.823 68.936 58.663 73.304C56.503 77.672 54.511 81.992 52.687 86.264ZM76.375 58.472C76.999 55.64 77.719 52.784 78.535 49.904C79.399 46.976 80.287 44.192 81.199 41.552C82.159 38.864 83.095 36.464 84.007 34.352C82.567 35.504 80.959 37.16 79.183 39.32C77.407 41.48 75.535 44.024 73.567 46.952C71.647 49.88 69.679 53.072 67.663 56.528C69.103 56.816 70.543 57.128 71.983 57.464C73.423 57.8 74.887 58.136 76.375 58.472ZM87.1086 100.16C86.7246 100.16 86.3166 100.04 85.8846 99.8C85.4526 99.608 85.0926 99.368 84.8046 99.08C84.4686 98.792 84.2766 98.552 84.2286 98.36C85.4286 94.856 86.4606 91.808 87.3246 89.216C88.1406 86.672 88.8366 84.248 89.4126 81.944C89.9886 79.688 90.5166 77.336 90.9966 74.888C91.4286 72.392 91.8606 69.56 92.2926 66.392C92.7726 63.176 93.3006 59.312 93.8766 54.8C93.9726 54.224 94.0926 53.816 94.2366 53.576C94.3806 53.288 94.8366 53.144 95.6046 53.144C97.0926 53.144 98.1726 53.552 98.8446 54.368C99.5166 55.136 99.8526 56 99.8526 56.96C99.8526 57.44 99.7566 58.28 99.5646 59.48C99.4206 60.68 99.1806 62.096 98.8446 63.728C99.7566 62.336 100.789 61.016 101.941 59.768C103.141 58.52 104.461 57.512 105.901 56.744C107.341 55.928 108.901 55.52 110.581 55.52C112.933 55.52 114.877 56.312 116.413 57.896C117.949 59.48 118.717 61.568 118.717 64.16C118.717 66.032 118.285 68.024 117.421 70.136C116.605 72.2 115.429 74.168 113.893 76.04C112.357 77.864 110.509 79.352 108.349 80.504C106.189 81.704 103.813 82.304 101.221 82.304C99.6846 82.304 98.4606 82.112 97.5486 81.728C96.6366 81.344 96.1806 80.912 96.1806 80.432C96.1806 80.096 96.3486 79.904 96.6846 79.856C97.0686 79.76 97.4766 79.712 97.9086 79.712C100.165 79.664 102.205 79.184 104.029 78.272C105.901 77.36 107.509 76.184 108.853 74.744C110.197 73.256 111.229 71.672 111.949 69.992C112.669 68.312 113.029 66.656 113.029 65.024C113.029 63.584 112.693 62.336 112.021 61.28C111.397 60.224 110.389 59.696 108.997 59.696C107.797 59.696 106.573 60.08 105.325 60.848C104.125 61.616 102.997 62.6 101.941 63.8C100.885 64.952 99.9486 66.176 99.1326 67.472C98.3166 68.72 97.6926 69.824 97.2606 70.784C96.3486 73.952 95.5086 77.096 94.7406 80.216C94.0206 83.384 93.3246 86.312 92.6526 89C91.9806 91.688 91.3086 93.968 90.6366 95.84C89.9166 97.712 89.1486 98.984 88.3326 99.656C87.9486 99.992 87.5406 100.16 87.1086 100.16ZM116.851 100.16C116.467 100.16 116.059 100.04 115.627 99.8C115.195 99.608 114.835 99.368 114.547 99.08C114.211 98.792 114.019 98.552 113.971 98.36C115.171 94.856 116.203 91.808 117.067 89.216C117.883 86.672 118.579 84.248 119.155 81.944C119.731 79.688 120.259 77.336 120.739 74.888C121.171 72.392 121.603 69.56 122.035 66.392C122.515 63.176 123.043 59.312 123.619 54.8C123.715 54.224 123.835 53.816 123.979 53.576C124.123 53.288 124.579 53.144 125.347 53.144C126.835 53.144 127.915 53.552 128.587 54.368C129.259 55.136 129.595 56 129.595 56.96C129.595 57.44 129.499 58.28 129.307 59.48C129.163 60.68 128.923 62.096 128.587 63.728C129.499 62.336 130.531 61.016 131.683 59.768C132.883 58.52 134.203 57.512 135.643 56.744C137.083 55.928 138.643 55.52 140.323 55.52C142.675 55.52 144.619 56.312 146.155 57.896C147.691 59.48 148.459 61.568 148.459 64.16C148.459 66.032 148.027 68.024 147.163 70.136C146.347 72.2 145.171 74.168 143.635 76.04C142.099 77.864 140.251 79.352 138.091 80.504C135.931 81.704 133.555 82.304 130.963 82.304C129.427 82.304 128.203 82.112 127.291 81.728C126.379 81.344 125.923 80.912 125.923 80.432C125.923 80.096 126.091 79.904 126.427 79.856C126.811 79.76 127.219 79.712 127.651 79.712C129.907 79.664 131.947 79.184 133.771 78.272C135.643 77.36 137.251 76.184 138.595 74.744C139.939 73.256 140.971 71.672 141.691 69.992C142.411 68.312 142.771 66.656 142.771 65.024C142.771 63.584 142.435 62.336 141.763 61.28C141.139 60.224 140.131 59.696 138.739 59.696C137.539 59.696 136.315 60.08 135.067 60.848C133.867 61.616 132.739 62.6 131.683 63.8C130.627 64.952 129.691 66.176 128.875 67.472C128.059 68.72 127.435 69.824 127.003 70.784C126.091 73.952 125.251 77.096 124.483 80.216C123.763 83.384 123.067 86.312 122.395 89C121.723 91.688 121.051 93.968 120.379 95.84C119.659 97.712 118.891 98.984 118.075 99.656C117.691 99.992 117.283 100.16 116.851 100.16ZM68.6398 172.264C66.8638 172.264 64.8718 171.904 62.6638 171.184C60.4558 170.464 58.1758 169.6 55.8238 168.592C53.5198 167.584 51.2638 166.624 49.0558 165.712C47.8558 167.008 46.5598 168.016 45.1678 168.736C43.7758 169.456 42.2878 169.816 40.7038 169.816C39.0238 169.816 37.5838 169.432 36.3838 168.664C35.1358 167.944 34.1998 167.056 33.5758 166C32.9038 164.944 32.5678 163.984 32.5678 163.12C32.5678 162.16 32.9998 161.32 33.8638 160.6C34.7278 159.88 36.2638 159.52 38.4718 159.52C39.7678 159.52 41.1838 159.664 42.7198 159.952C44.3038 160.192 45.9118 160.528 47.5438 160.96C48.6478 159.04 49.6558 156.784 50.5678 154.192C51.5278 151.6 52.4638 148.888 53.3758 146.056C54.2878 143.176 55.1998 140.368 56.1118 137.632C53.7118 136.816 51.8638 135.688 50.5678 134.248C49.2718 132.76 48.6238 131.272 48.6238 129.784C48.6238 128.824 48.8638 127.888 49.3438 126.976C49.8238 126.016 50.5198 125.224 51.4318 124.6C52.3438 123.928 53.4238 123.592 54.6718 123.592C54.0478 124.36 53.6398 125.224 53.4478 126.184C53.3038 127.144 53.2318 127.912 53.2318 128.488C53.2318 130.072 53.5918 131.416 54.3118 132.52C55.0318 133.624 55.9198 134.488 56.9758 135.112C57.8878 132.376 58.8478 129.76 59.8558 127.264C60.9118 124.72 62.0638 122.488 63.3118 120.568C64.6078 118.6 66.0238 117.04 67.5598 115.888C69.1438 114.736 70.9198 114.16 72.8878 114.16C73.9918 114.16 75.1438 114.4 76.3438 114.88C77.5918 115.312 78.6478 116.08 79.5118 117.184C80.4238 118.288 80.8798 119.872 80.8798 121.936C80.8798 123.568 80.5198 125.32 79.7998 127.192C79.1278 129.064 78.0478 130.864 76.5598 132.592C75.0718 134.272 73.1518 135.688 70.7998 136.84C68.4958 137.944 65.6878 138.544 62.3758 138.64C62.2798 138.64 62.1598 138.64 62.0158 138.64C61.9198 138.64 61.8238 138.64 61.7278 138.64C60.8158 141.424 59.8558 144.232 58.8478 147.064C57.8398 149.896 56.7598 152.608 55.6078 155.2C54.4558 157.792 53.2078 160.096 51.8638 162.112C53.7358 162.64 55.7998 163.24 58.0558 163.912C60.3598 164.584 62.6398 165.16 64.8958 165.64C67.1998 166.072 69.2158 166.288 70.9438 166.288C72.0958 166.288 73.1518 166.168 74.1118 165.928C75.1198 165.64 76.1758 165.232 77.2798 164.704C76.3198 167.392 75.1198 169.312 73.6798 170.464C72.2878 171.664 70.6078 172.264 68.6398 172.264ZM39.9838 167.152C41.2318 167.152 42.2398 166.864 43.0078 166.288C43.7758 165.76 44.5438 165.088 45.3118 164.272C43.8238 163.744 42.4318 163.312 41.1358 162.976C39.8398 162.592 38.7118 162.4 37.7518 162.4C36.8398 162.4 36.1918 162.568 35.8078 162.904C35.3758 163.24 35.1598 163.648 35.1598 164.128C35.1598 164.896 35.6398 165.592 36.5998 166.216C37.5598 166.84 38.6878 167.152 39.9838 167.152ZM62.5198 136.264C64.6318 136.12 66.5038 135.448 68.1358 134.248C69.7678 133.048 71.1598 131.608 72.3118 129.928C73.4638 128.248 74.3278 126.544 74.9038 124.816C75.5278 123.04 75.8398 121.504 75.8398 120.208C75.8398 118.96 75.5998 118.12 75.1198 117.688C74.6398 117.208 74.0878 116.968 73.4638 116.968C72.0718 116.968 70.7518 117.856 69.5038 119.632C68.2558 121.408 67.0558 123.76 65.9038 126.688C64.7998 129.568 63.6718 132.76 62.5198 136.264ZM84.959 168.304C82.799 168.304 81.311 167.584 80.495 166.144C79.727 164.752 79.343 163.216 79.343 161.536C79.343 160 79.583 158.44 80.063 156.856C80.543 155.224 81.191 153.712 82.007 152.32C82.871 150.928 83.807 149.824 84.815 149.008C85.871 148.144 86.927 147.712 87.983 147.712C88.319 147.712 88.703 147.784 89.135 147.928C89.615 148.024 89.951 148.192 90.143 148.432C89.567 149.152 88.967 150.04 88.343 151.096C87.767 152.152 87.215 153.28 86.687 154.48C86.207 155.632 85.823 156.808 85.535 158.008C85.247 159.208 85.103 160.312 85.103 161.32C85.103 162.28 85.271 163.072 85.607 163.696C85.991 164.32 86.639 164.632 87.551 164.632C88.463 164.632 89.543 164.128 90.791 163.12C92.087 162.064 93.311 160.864 94.463 159.52C92.927 158.128 91.823 156.616 91.151 154.984C90.479 153.304 90.143 151.288 90.143 148.936C90.143 147.928 90.383 146.776 90.863 145.48C91.391 144.184 92.207 143.056 93.311 142.096C94.463 141.136 95.999 140.656 97.919 140.656C99.983 140.656 101.423 141.232 102.239 142.384C103.103 143.536 103.535 144.904 103.535 146.488C103.535 148.264 103.055 150.256 102.095 152.464C101.183 154.672 100.079 156.76 98.783 158.728C99.359 159.016 100.031 159.16 100.799 159.16C101.519 159.16 102.383 158.992 103.391 158.656C104.399 158.32 105.383 157.768 106.343 157C107.303 156.184 108.071 155.104 108.647 153.76L109.943 154.696C108.887 157.144 107.471 158.944 105.695 160.096C103.967 161.2 102.263 161.752 100.583 161.752C99.959 161.752 99.335 161.704 98.711 161.608C98.087 161.464 97.511 161.296 96.983 161.104C95.351 163.024 93.479 164.704 91.367 166.144C89.255 167.584 87.119 168.304 84.959 168.304ZM96.335 157.216C97.487 155.536 98.471 153.736 99.287 151.816C100.103 149.896 100.511 148.12 100.511 146.488C100.511 145.384 100.343 144.592 100.007 144.112C99.671 143.584 99.167 143.32 98.495 143.32C97.583 143.32 96.647 143.968 95.687 145.264C94.727 146.56 94.247 148.192 94.247 150.16C94.247 151.168 94.415 152.392 94.751 153.832C95.135 155.272 95.663 156.4 96.335 157.216ZM110.596 186.16C109.396 186.16 108.268 185.8 107.212 185.08C106.204 184.36 105.7 183.184 105.7 181.552C105.7 180.016 106.132 178.624 106.996 177.376C107.908 176.176 109.084 175.048 110.524 173.992C112.012 172.984 113.596 172.048 115.276 171.184C116.956 170.32 118.588 169.504 120.172 168.736C120.7 167.44 121.204 166.048 121.684 164.56C122.164 163.072 122.62 161.464 123.052 159.736C121.372 161.848 119.596 163.6 117.724 164.992C115.9 166.384 114.028 167.08 112.108 167.08C110.188 167.08 108.652 166.408 107.5 165.064C106.396 163.72 105.844 161.944 105.844 159.736C105.844 157.192 106.468 154.816 107.716 152.608C109.012 150.352 110.668 148.36 112.684 146.632C114.7 144.856 116.86 143.488 119.164 142.528C121.468 141.52 123.676 141.016 125.788 141.016C127.324 141.016 128.476 141.304 129.244 141.88C130.012 142.408 130.396 143.032 130.396 143.752C130.396 144.328 130.228 144.784 129.892 145.12C129.556 145.456 129.34 145.648 129.244 145.696C128.764 145.168 128.26 144.832 127.732 144.688C127.252 144.496 126.676 144.4 126.004 144.4C124.132 144.4 122.332 144.928 120.604 145.984C118.876 147.04 117.34 148.408 115.996 150.088C114.7 151.72 113.668 153.424 112.9 155.2C112.132 156.976 111.748 158.584 111.748 160.024C111.748 160.984 111.964 161.728 112.396 162.256C112.828 162.736 113.356 162.976 113.98 162.976C115.324 162.976 116.956 162.112 118.876 160.384C120.796 158.608 122.644 156.472 124.42 153.976C124.516 153.592 124.588 153.256 124.636 152.968C124.732 152.632 124.804 152.32 124.852 152.032C125.332 150.112 125.908 148.696 126.58 147.784C127.252 146.872 128.188 146.416 129.388 146.416C129.628 146.416 129.916 146.44 130.252 146.488C130.636 146.536 131.044 146.608 131.476 146.704C131.476 147.568 131.236 148.984 130.756 150.952C130.276 152.92 129.628 155.224 128.812 157.864C127.996 160.456 127.084 163.12 126.076 165.856C127.564 165.232 129.076 164.368 130.612 163.264C132.148 162.112 133.564 160.744 134.86 159.16C136.156 157.528 137.14 155.728 137.812 153.76L139.108 155.056C138.34 157.264 137.14 159.28 135.508 161.104C133.924 162.928 132.196 164.512 130.324 165.856C128.452 167.152 126.724 168.16 125.14 168.88C123.844 172.048 122.428 174.928 120.892 177.52C119.404 180.16 117.796 182.248 116.068 183.784C114.388 185.368 112.564 186.16 110.596 186.16ZM110.308 182.848C111.172 182.848 112.348 182.032 113.836 180.4C115.372 178.768 117.028 176.008 118.804 172.12C117.028 172.984 115.396 173.872 113.908 174.784C112.42 175.696 111.22 176.656 110.308 177.664C109.396 178.672 108.94 179.728 108.94 180.832C108.94 181.456 109.06 181.936 109.3 182.272C109.588 182.656 109.924 182.848 110.308 182.848ZM140.787 168.304C138.627 168.304 137.139 167.584 136.323 166.144C135.555 164.752 135.171 163.216 135.171 161.536C135.171 160 135.411 158.44 135.891 156.856C136.371 155.224 137.019 153.712 137.835 152.32C138.699 150.928 139.635 149.824 140.643 149.008C141.699 148.144 142.755 147.712 143.811 147.712C144.147 147.712 144.531 147.784 144.963 147.928C145.443 148.024 145.779 148.192 145.971 148.432C145.395 149.152 144.795 150.04 144.171 151.096C143.595 152.152 143.043 153.28 142.515 154.48C142.035 155.632 141.651 156.808 141.363 158.008C141.075 159.208 140.931 160.312 140.931 161.32C140.931 162.28 141.099 163.072 141.435 163.696C141.819 164.32 142.467 164.632 143.379 164.632C144.291 164.632 145.371 164.128 146.619 163.12C147.915 162.064 149.139 160.864 150.291 159.52C148.755 158.128 147.651 156.616 146.979 154.984C146.307 153.304 145.971 151.288 145.971 148.936C145.971 147.928 146.211 146.776 146.691 145.48C147.219 144.184 148.035 143.056 149.139 142.096C150.291 141.136 151.827 140.656 153.747 140.656C155.811 140.656 157.251 141.232 158.067 142.384C158.931 143.536 159.363 144.904 159.363 146.488C159.363 148.264 158.883 150.256 157.923 152.464C157.011 154.672 155.907 156.76 154.611 158.728C155.187 159.016 155.859 159.16 156.627 159.16C157.347 159.16 158.211 158.992 159.219 158.656C160.227 158.32 161.211 157.768 162.171 157C163.131 156.184 163.899 155.104 164.475 153.76L165.771 154.696C164.715 157.144 163.299 158.944 161.523 160.096C159.795 161.2 158.091 161.752 156.411 161.752C155.787 161.752 155.163 161.704 154.539 161.608C153.915 161.464 153.339 161.296 152.811 161.104C151.179 163.024 149.307 164.704 147.195 166.144C145.083 167.584 142.947 168.304 140.787 168.304ZM152.163 157.216C153.315 155.536 154.299 153.736 155.115 151.816C155.931 149.896 156.339 148.12 156.339 146.488C156.339 145.384 156.171 144.592 155.835 144.112C155.499 143.584 154.995 143.32 154.323 143.32C153.411 143.32 152.475 143.968 151.515 145.264C150.555 146.56 150.075 148.192 150.075 150.16C150.075 151.168 150.243 152.392 150.579 153.832C150.963 155.272 151.491 156.4 152.163 157.216Z" fill="#9F3838"/>
</svg>
